<svg width="25" height="24" viewBox="0 0 25 24" fill="none" xmlns="http://www.w3.org/2000/svg">
<path fill-rule="evenodd" clip-rule="evenodd" d="M8.1388 18.9995H4.41352C3.67472 18.9995 3.07581 18.4006 3.07581 17.6618V16.7888C3.07581 16.2834 3.27658 15.7987 3.63395 15.4414C4.55716 14.5182 5.07581 13.266 5.07581 11.9604V8.99951C5.07581 5.13352 8.20982 1.99951 12.0758 1.99951C15.9418 1.99951 19.0758 5.13352 19.0758 8.99951V11.9604C19.0758 13.266 19.5945 14.5182 20.5177 15.4414C20.875 15.7987 21.0758 16.2834 21.0758 16.7888V17.6618C21.0758 18.4006 20.4769 18.9995 19.7381 18.9995H16.0128C16.0128 19.3641 16.0053 20.157 15.5806 20.928C14.9028 22.1585 13.5889 22.9995 12.0758 22.9995C10.5627 22.9995 9.24878 22.1585 8.57096 20.928C8.14627 20.157 8.1388 19.3641 8.1388 18.9995ZM17.0758 11.9604C17.0758 13.7834 17.7948 15.5322 19.0758 16.8278V16.9995H5.07581V16.8278C6.3568 15.5322 7.07581 13.7834 7.07581 11.9604V8.99951C7.07581 6.23809 9.31439 3.99951 12.0758 3.99951C14.8372 3.99951 17.0758 6.23809 17.0758 8.99951V11.9604ZM14.0128 18.9995H10.1388C10.1388 19.3315 10.1626 19.6723 10.3228 19.9631C10.6621 20.5791 11.3167 20.997 12.0691 20.9995H12.0758H12.0824C12.8349 20.997 13.4895 20.5791 13.8288 19.9631C13.989 19.6723 14.0128 19.3315 14.0128 18.9995Z" fill="#0E1114"/>
</svg>
