<svg width="18" height="18" viewBox="0 0 18 18" fill="none" xmlns="http://www.w3.org/2000/svg">
<path fill-rule="evenodd" clip-rule="evenodd" d="M9.50075 2.33159C9.23505 2.06591 8.87472 1.91666 8.49902 1.91666H3.41914C2.63673 1.91666 2.00247 2.55092 2.00247 3.33332V8.41321C2.00247 8.78891 2.15172 9.14924 2.41741 9.41493L8.79241 15.7899C9.34562 16.3431 10.2427 16.3431 10.7959 15.7899L15.8757 10.71C16.429 10.1568 16.429 9.25981 15.8757 8.7066L9.50075 2.33159ZM6.96081 5.81249C6.96081 6.39929 6.48511 6.87499 5.89831 6.87499C5.3115 6.87499 4.83581 6.39929 4.83581 5.81249C4.83581 5.22569 5.3115 4.74999 5.89831 4.74999C6.48511 4.74999 6.96081 5.22569 6.96081 5.81249Z" fill="#0E1114"/>
</svg>
