<svg width="127" height="29" viewBox="0 0 127 29" fill="none" xmlns="http://www.w3.org/2000/svg">
<path d="M18.5999 23.4726V28.8711H0.540955V0.221069H18.3945V5.61954H6.29426V11.7124H17.3443V17.0437H6.29426V23.4726H18.5999Z" fill="white"/>
<path d="M46.4408 8.30797V28.3236H41.1752V25.9585C39.7026 27.7542 37.516 28.871 34.5262 28.871C29.1043 28.871 24.6196 24.2723 24.6196 18.3158C24.6196 12.3593 29.1266 7.7605 34.5485 7.7605C37.516 7.7605 39.7249 8.87734 41.1975 10.673V8.30797H46.4408ZM41.1975 18.3158C41.1975 14.9652 38.7878 12.6658 35.5302 12.6658C32.3173 12.6658 29.9075 14.9433 29.9075 18.3158C29.9075 21.6663 32.3173 23.9657 35.5302 23.9657C38.7878 23.9657 41.1975 21.6882 41.1975 18.3158Z" fill="white"/>
<path d="M57.6835 13.7379V22.0167C57.6835 24.1736 59.2548 24.1954 62.2425 24.0429V28.7051C54.9171 29.5112 52.4605 27.398 52.4605 22.0167V4.78377L57.6835 3.23694V8.81423H62.2425V13.7597H57.6835V13.7379Z" fill="white"/>
<path d="M98.3605 16.2137V28.871H93.1405V16.5959C93.1405 14.1678 91.9188 12.684 89.7419 12.684C87.4318 12.684 85.9657 14.2353 85.9657 17.3153V28.8485H80.7013V16.5959C80.7013 14.1678 79.4796 12.684 77.3027 12.684C75.0815 12.684 73.4821 14.2353 73.4821 17.3153V28.8485H68.2621V8.32255H73.5044V10.5033C74.6372 8.77218 76.5475 7.7605 79.1464 7.7605C81.6564 7.7605 83.5223 8.83963 84.6552 10.7281C85.8991 8.86211 87.9427 7.7605 90.697 7.7605C95.3173 7.7605 98.3605 11.0878 98.3605 16.2137Z" fill="white"/>
<path d="M118.873 22.7545C120.518 21.6195 121.352 20.0044 121.396 18.564L126.201 18.1493C126.223 21.4449 124.665 24.435 121.506 26.6394C115.999 30.4807 109.855 29.1493 106.432 24.2822C103.01 19.4152 103.865 13.2167 109.021 9.61551C113.892 6.23256 120.014 7.65122 123.393 12.4528C123.832 13.0639 124.161 13.6751 124.446 14.308L112.071 22.9291C114.178 24.6533 116.635 24.3041 118.873 22.7545ZM118.083 13.8497C115.911 11.8635 113.453 12.1473 111.698 13.3913C109.438 14.9628 108.736 17.2544 109.724 19.6771L118.083 13.8497Z" fill="white"/>
</svg>
