<svg width="19" height="19" viewBox="0 0 19 19" fill="none" xmlns="http://www.w3.org/2000/svg">
<mask id="path-1-inside-1_2_1545" fill="white">
<path d="M18.9727 9.40454C18.9727 14.5725 14.7832 18.762 9.61523 18.762C4.44727 18.762 0.257812 14.5725 0.257812 9.40454C0.257812 4.23658 4.44727 0.0471191 9.61523 0.0471191C14.7832 0.0471191 18.9727 4.23658 18.9727 9.40454ZM2.64396 9.40454C2.64396 13.2547 5.7651 16.3758 9.61523 16.3758C13.4654 16.3758 16.5865 13.2547 16.5865 9.40454C16.5865 5.55441 13.4654 2.43326 9.61523 2.43326C5.7651 2.43326 2.64396 5.55441 2.64396 9.40454Z"/>
</mask>
<path d="M18.9727 9.40454C18.9727 14.5725 14.7832 18.762 9.61523 18.762C4.44727 18.762 0.257812 14.5725 0.257812 9.40454C0.257812 4.23658 4.44727 0.0471191 9.61523 0.0471191C14.7832 0.0471191 18.9727 4.23658 18.9727 9.40454ZM2.64396 9.40454C2.64396 13.2547 5.7651 16.3758 9.61523 16.3758C13.4654 16.3758 16.5865 13.2547 16.5865 9.40454C16.5865 5.55441 13.4654 2.43326 9.61523 2.43326C5.7651 2.43326 2.64396 5.55441 2.64396 9.40454Z" stroke="#E2E5E9" stroke-width="4.39876" mask="url(#path-1-inside-1_2_1545)"/>
<mask id="path-2-inside-2_2_1545" fill="white">
<path d="M2.92739 4.72166C2.38764 4.34372 1.63605 4.47216 1.32981 5.05558C0.536334 6.56727 0.167929 8.27474 0.27638 9.99373C0.409993 12.1115 1.25946 14.121 2.68541 15.6925C4.11136 17.264 6.02911 18.3042 8.12401 18.6424C10.2189 18.9805 12.3665 18.5966 14.2145 17.5536C16.0625 16.5106 17.5011 14.8705 18.2943 12.9023C19.0875 10.9341 19.1882 8.75476 18.5799 6.72182C17.9715 4.68888 16.6902 2.92309 14.9462 1.71417C13.5307 0.732898 11.8785 0.165812 10.1743 0.0638188C9.51655 0.024455 9.01816 0.601501 9.06275 1.25891C9.10734 1.91631 9.67954 2.40247 10.3349 2.4705C11.4967 2.5911 12.6164 3.00252 13.5868 3.67521C14.8861 4.57586 15.8406 5.89138 16.2939 7.40591C16.7471 8.92045 16.6721 10.5441 16.0812 12.0104C15.4902 13.4767 14.4185 14.6986 13.0417 15.4756C11.665 16.2527 10.065 16.5387 8.50427 16.2867C6.94357 16.0348 5.51485 15.2599 4.45252 14.0891C3.39018 12.9183 2.75733 11.4213 2.65779 9.84349C2.58344 8.66506 2.8099 7.49389 3.30712 6.43695C3.58761 5.84072 3.46714 5.0996 2.92739 4.72166Z"/>
</mask>
<path d="M2.92739 4.72166C2.38764 4.34372 1.63605 4.47216 1.32981 5.05558C0.536334 6.56727 0.167929 8.27474 0.27638 9.99373C0.409993 12.1115 1.25946 14.121 2.68541 15.6925C4.11136 17.264 6.02911 18.3042 8.12401 18.6424C10.2189 18.9805 12.3665 18.5966 14.2145 17.5536C16.0625 16.5106 17.5011 14.8705 18.2943 12.9023C19.0875 10.9341 19.1882 8.75476 18.5799 6.72182C17.9715 4.68888 16.6902 2.92309 14.9462 1.71417C13.5307 0.732898 11.8785 0.165812 10.1743 0.0638188C9.51655 0.024455 9.01816 0.601501 9.06275 1.25891C9.10734 1.91631 9.67954 2.40247 10.3349 2.4705C11.4967 2.5911 12.6164 3.00252 13.5868 3.67521C14.8861 4.57586 15.8406 5.89138 16.2939 7.40591C16.7471 8.92045 16.6721 10.5441 16.0812 12.0104C15.4902 13.4767 14.4185 14.6986 13.0417 15.4756C11.665 16.2527 10.065 16.5387 8.50427 16.2867C6.94357 16.0348 5.51485 15.2599 4.45252 14.0891C3.39018 12.9183 2.75733 11.4213 2.65779 9.84349C2.58344 8.66506 2.8099 7.49389 3.30712 6.43695C3.58761 5.84072 3.46714 5.0996 2.92739 4.72166Z" stroke="#FF8A59" stroke-width="4.39876" mask="url(#path-2-inside-2_2_1545)"/>
</svg>
