<svg width="119" height="36" viewBox="0 0 119 36" fill="none" xmlns="http://www.w3.org/2000/svg">
<g clip-path="url(#clip0_8_3571)">
<path d="M118.716 32.2273C118.716 34.2272 117.171 35.7725 115.352 35.7725H3.90439C2.08632 35.7725 0.540955 34.2272 0.540955 32.2273V3.86532C0.540955 1.95634 2.08632 0.320068 3.90439 0.320068H115.262C117.171 0.320068 118.625 1.95634 118.625 3.86532L118.716 32.2273Z" fill="black" fill-opacity="0.5"/>
<path d="M42.0845 9.23135C42.0845 9.95859 41.9027 10.504 41.4482 10.9585C40.9936 11.5039 40.2664 11.7767 39.5392 11.7767C38.812 11.7767 38.1756 11.5039 37.6302 10.9585C37.0848 10.4131 36.8121 9.77678 36.8121 8.95864C36.8121 8.14051 37.0848 7.50418 37.6302 6.95876C38.1756 6.41334 38.812 6.14062 39.5392 6.14062C39.9028 6.14062 40.2664 6.23153 40.63 6.32243C40.9936 6.50424 41.2664 6.68605 41.4482 6.86786L40.9936 7.32237C40.63 6.86786 40.1755 6.68605 39.5392 6.68605C38.9938 6.68605 38.5392 6.86786 38.0847 7.23147C37.7211 7.59509 37.4484 8.14051 37.4484 8.77684C37.4484 9.41316 37.6302 9.86768 38.0847 10.3222C38.4483 10.6858 38.9938 10.8676 39.5392 10.8676C40.0846 10.8676 40.63 10.6858 40.9936 10.3222C41.2664 10.0495 41.3573 9.68587 41.4482 9.23135H39.5392V8.86774H42.0845C41.9936 8.95864 42.0845 9.14045 42.0845 9.23135Z" fill="white" stroke="white" stroke-width="0.181808" stroke-miterlimit="10"/>
<path d="M46.0843 7.04966H43.7208V8.68593H45.9025V9.32225H43.7208V10.9585H46.0843V11.5948H42.9936V6.41333H46.0843V7.04966Z" fill="white" stroke="white" stroke-width="0.181808" stroke-miterlimit="10"/>
<path d="M48.9026 11.6858H48.2662V7.04966H46.8118V6.41333H50.4479V7.04966H48.9935V11.6858H48.9026Z" fill="white" stroke="white" stroke-width="0.181808" stroke-miterlimit="10"/>
<path d="M52.9933 11.6858V6.41333H53.6296V11.6858H52.9933Z" fill="white" stroke="white" stroke-width="0.181808" stroke-miterlimit="10"/>
<path d="M56.72 11.6858H55.9928V7.04966H54.5383V6.41333H58.1745V7.04966H56.72V11.6858Z" fill="white" stroke="white" stroke-width="0.181808" stroke-miterlimit="10"/>
<path d="M64.9922 10.9586C64.4468 11.504 63.8105 11.7767 63.0833 11.7767C62.356 11.7767 61.6288 11.504 61.1743 10.9586C60.6288 10.4132 60.3561 9.77685 60.3561 9.04962C60.3561 8.32239 60.6288 7.59516 61.1743 7.14064C61.7197 6.59522 62.356 6.32251 63.0833 6.32251C63.8105 6.32251 64.4468 6.59522 64.9922 7.14064C65.5377 7.68607 65.8104 8.32239 65.8104 9.04962C65.7195 9.77685 65.5377 10.4132 64.9922 10.9586ZM61.6288 10.5041C61.9924 10.8677 62.5378 11.0495 63.0833 11.0495C63.6287 11.0495 64.0832 10.8677 64.5377 10.5041C64.9013 10.1405 65.0831 9.59505 65.0831 8.95872C65.0831 8.32239 64.9013 7.86787 64.5377 7.41336C64.1741 7.04974 63.6287 6.86793 63.0833 6.86793C62.5378 6.86793 62.0833 7.04974 61.6288 7.41336C61.2652 7.77697 61.0834 8.32239 61.0834 8.95872C61.0834 9.59505 61.2652 10.1405 61.6288 10.5041Z" fill="white" stroke="white" stroke-width="0.181808" stroke-miterlimit="10"/>
<path d="M66.7195 11.6858V6.41333H67.5376L70.083 10.504V9.50406V6.41333H70.7193V11.6858H69.992L67.3558 7.32237V8.32231V11.5948H66.7195V11.6858Z" fill="white" stroke="white" stroke-width="0.181808" stroke-miterlimit="10"/>
<path d="M60.1739 19.3217C58.0832 19.3217 56.4469 20.8671 56.4469 23.0488C56.4469 25.2305 58.0832 26.7758 60.1739 26.7758C62.2647 26.7758 63.901 25.2305 63.901 23.0488C63.901 20.8671 62.2647 19.3217 60.1739 19.3217ZM60.1739 25.3214C59.0831 25.3214 58.0832 24.4123 58.0832 23.0488C58.0832 21.6852 59.0831 20.7762 60.1739 20.7762C61.2648 20.7762 62.2647 21.6852 62.2647 23.0488C62.2647 24.3214 61.3557 25.3214 60.1739 25.3214ZM51.9926 19.3217C49.9018 19.3217 48.2656 20.8671 48.2656 23.0488C48.2656 25.2305 49.9018 26.7758 51.9926 26.7758C54.0834 26.7758 55.7197 25.2305 55.7197 23.0488C55.8106 20.8671 54.0834 19.3217 51.9926 19.3217ZM51.9926 25.3214C50.9018 25.3214 49.9018 24.4123 49.9018 23.0488C49.9018 21.6852 50.9018 20.7762 51.9926 20.7762C53.0835 20.7762 54.0834 21.6852 54.0834 23.0488C54.1743 24.3214 53.1744 25.3214 51.9926 25.3214ZM42.3568 20.4126V21.9579H46.1748C46.0839 22.867 45.8111 23.5033 45.3566 23.9578C44.8112 24.5032 43.9022 25.1396 42.4477 25.1396C40.0842 25.1396 38.2661 23.2306 38.2661 20.958C38.2661 18.6854 40.0842 16.7764 42.4477 16.7764C43.7204 16.7764 44.6294 17.2309 45.2657 17.8673L46.3566 16.7764C45.4475 15.8674 44.1749 15.1401 42.3568 15.1401C39.1752 15.1401 36.4481 17.7763 36.4481 20.958C36.4481 24.1396 39.0843 26.7758 42.3568 26.7758C44.084 26.7758 45.3566 26.2304 46.3566 25.1396C47.3565 24.1396 47.7201 22.5942 47.7201 21.4125C47.7201 21.0489 47.7201 20.6853 47.6292 20.4126H42.3568ZM81.9909 21.6852C81.7181 20.8671 80.7182 19.3217 78.8092 19.3217C76.9002 19.3217 75.264 20.8671 75.264 23.0488C75.264 25.1396 76.8093 26.7758 78.991 26.7758C80.7182 26.7758 81.7181 25.7759 82.0818 25.1396L80.8091 24.3214C80.3546 24.9577 79.8092 25.3214 78.991 25.3214C78.1729 25.3214 77.5366 24.9577 77.173 24.2305L82.1727 22.1397L81.9909 21.6852ZM76.9002 22.9579C76.9002 21.5034 77.9911 20.7762 78.8092 20.7762C79.4455 20.7762 79.991 21.1398 80.1728 21.5943L76.9002 22.9579ZM72.9005 26.5031H74.5367V15.5947H72.9005V26.5031ZM70.1734 20.1398C69.7188 19.6853 69.0825 19.3217 68.1735 19.3217C66.3554 19.3217 64.6282 20.958 64.6282 23.0488C64.6282 25.1396 66.3554 26.7758 68.1735 26.7758C69.0825 26.7758 69.8097 26.4122 70.1734 25.9577H70.2643V26.4122C70.2643 27.8667 69.537 28.5939 68.2644 28.5939C67.2644 28.5939 66.6281 27.8667 66.3554 27.2303L64.9009 27.8667C65.2646 28.8666 66.3554 30.0484 68.1735 30.0484C70.0825 30.0484 71.7187 28.9575 71.7187 26.1395V19.4126H70.1734V20.1398ZM68.3553 25.3214C67.2644 25.3214 66.2645 24.4123 66.2645 23.0488C66.2645 21.7761 67.1735 20.7762 68.3553 20.7762C69.4461 20.7762 70.3552 21.7761 70.3552 23.0488C70.2643 24.3214 69.4461 25.3214 68.3553 25.3214ZM89.6268 15.5947H85.7179V26.5031H87.3542V22.3215H89.6268C91.4449 22.3215 93.172 21.0489 93.172 18.9581C93.172 16.8673 91.4449 15.5947 89.6268 15.5947ZM89.7177 20.8671H87.3542V17.14H89.7177C90.8994 17.14 91.6267 18.14 91.6267 19.049C91.6267 19.8671 90.8994 20.8671 89.7177 20.8671ZM99.808 19.3217C98.6262 19.3217 97.4445 19.8671 96.8991 20.958L98.3535 21.5943C98.6262 20.958 99.2626 20.7762 99.808 20.7762C100.626 20.7762 101.535 21.3216 101.535 22.1397V22.2306C101.262 22.0488 100.626 21.7761 99.808 21.7761C98.2626 21.7761 96.6264 22.5942 96.6264 24.2305C96.6264 25.685 97.899 26.594 99.3535 26.594C100.444 26.594 101.081 26.1395 101.444 25.5032H101.535V26.3213H103.081V22.1397C103.081 20.4126 101.626 19.3217 99.808 19.3217ZM99.6262 25.3214C99.0808 25.3214 98.3535 25.0486 98.3535 24.4123C98.3535 23.5942 99.2626 23.2306 100.081 23.2306C100.808 23.2306 101.172 23.4124 101.535 23.5942C101.444 24.5941 100.535 25.3214 99.6262 25.3214ZM108.898 19.5035L106.989 24.2305H106.898L104.99 19.5035H103.262L106.171 26.1395L104.535 29.8665H106.262L110.716 19.5035H108.898ZM94.172 26.5031H95.8082V15.5947H94.172V26.5031Z" fill="white"/>
<path d="M9.63147 6.86792C9.44966 7.14063 9.26785 7.59515 9.26785 8.14057V27.5031C9.26785 28.0485 9.44966 28.503 9.63147 28.7757L9.72237 28.8666L20.5399 18.0491V17.9582V17.8673L9.63147 6.86792Z" fill="url(#paint0_linear_8_3571)"/>
<path d="M24.1759 21.5034L20.5398 17.8673V17.7764V17.6855L24.1759 14.0493L24.2669 14.1402L28.5393 16.5946C29.7211 17.3219 29.7211 18.4127 28.5393 19.1399L24.1759 21.5034Z" fill="url(#paint1_linear_8_3571)"/>
<path d="M24.2671 21.5034L20.54 17.7764L9.63156 28.6848C9.99518 29.1393 10.7224 29.1393 11.4496 28.7757L24.2671 21.5034Z" fill="url(#paint2_linear_8_3571)"/>
<path d="M24.2671 14.0492L11.4496 6.77695C10.7224 6.41333 10.0861 6.41333 9.63156 6.86785L20.54 17.7763L24.2671 14.0492Z" fill="url(#paint3_linear_8_3571)"/>
<path opacity="0.2" d="M24.1763 21.4124L11.4498 28.5938C10.7226 28.9574 10.0862 28.9574 9.72263 28.5938L9.63173 28.6847L9.72263 28.7756C10.0862 29.1392 10.7226 29.1392 11.4498 28.7756L24.1763 21.4124Z" fill="white" fill-opacity="0.2"/>
<path opacity="0.12" d="M9.63164 28.5937C9.35892 28.321 9.26802 27.8665 9.26802 27.321V27.4119C9.26802 27.9574 9.44983 28.4119 9.63164 28.6846V28.5937Z" fill="white" fill-opacity="0.2"/>
<path opacity="0.12" d="M28.5395 18.9581L24.1761 21.4125L24.267 21.5034L28.5395 19.049C29.1758 18.6854 29.4485 18.2309 29.4485 17.7764C29.4485 18.2309 29.0849 18.5945 28.5395 18.9581Z" fill="white" fill-opacity="0.2"/>
<path opacity="0.25" d="M11.4495 6.95871L28.5395 16.6854C29.0849 16.9581 29.4485 17.4126 29.4485 17.7763C29.4485 17.3217 29.1758 16.8672 28.5395 16.5036L11.4495 6.77691C10.2678 6.04968 9.26785 6.686 9.26785 8.04956V8.23137C9.26785 6.86781 10.2678 6.23148 11.4495 6.95871Z" fill="white"/>
</g>
<defs>
<linearGradient id="paint0_linear_8_3571" x1="19.6238" y1="7.89322" x2="4.93301" y2="22.584" gradientUnits="userSpaceOnUse">
<stop stop-color="#00A0FF"/>
<stop offset="0.00657445" stop-color="#00A1FF"/>
<stop offset="0.2601" stop-color="#00BEFF"/>
<stop offset="0.5122" stop-color="#00D2FF"/>
<stop offset="0.7604" stop-color="#00DFFF"/>
<stop offset="1" stop-color="#00E3FF"/>
</linearGradient>
<linearGradient id="paint1_linear_8_3571" x1="30.1585" y1="17.7776" x2="8.9772" y2="17.7776" gradientUnits="userSpaceOnUse">
<stop stop-color="#FFE000"/>
<stop offset="0.4087" stop-color="#FFBD00"/>
<stop offset="0.7754" stop-color="#FFA500"/>
<stop offset="1" stop-color="#FF9C00"/>
</linearGradient>
<linearGradient id="paint2_linear_8_3571" x1="22.2738" y1="19.7863" x2="2.35198" y2="39.7082" gradientUnits="userSpaceOnUse">
<stop stop-color="#FF3A44"/>
<stop offset="1" stop-color="#C31162"/>
</linearGradient>
<linearGradient id="paint3_linear_8_3571" x1="6.92899" y1="0.423134" x2="15.8249" y2="9.31907" gradientUnits="userSpaceOnUse">
<stop stop-color="#32A071"/>
<stop offset="0.0685" stop-color="#2DA771"/>
<stop offset="0.4762" stop-color="#15CF74"/>
<stop offset="0.8009" stop-color="#06E775"/>
<stop offset="1" stop-color="#00F076"/>
</linearGradient>
<clipPath id="clip0_8_3571">
<rect width="118.175" height="35.4525" fill="white" transform="translate(0.540955 0.0500488)"/>
</clipPath>
</defs>
</svg>
