<svg width="119" height="36" viewBox="0 0 119 36" fill="none" xmlns="http://www.w3.org/2000/svg">
<g clip-path="url(#clip0_8_3594)">
<path d="M118.716 32.2273C118.716 34.2272 117.171 35.7725 115.352 35.7725H3.90439C2.08632 35.7725 0.540955 34.2272 0.540955 32.2273V3.86532C0.540955 1.95634 2.08632 0.320068 3.90439 0.320068H115.262C117.171 0.320068 118.625 1.95634 118.625 3.86532L118.716 32.2273Z" fill="black" fill-opacity="0.5"/>
<path d="M26.4486 17.8644C26.4486 15.0464 28.8121 13.5919 28.903 13.5919C27.5395 11.592 25.4487 11.4102 24.7215 11.3193C22.9943 11.1375 21.2671 12.3192 20.3581 12.3192C19.449 12.3192 18.0855 11.3193 16.631 11.3193C14.722 11.3193 12.9949 12.4102 11.9949 14.1373C9.99505 17.5917 11.4495 22.7732 13.4494 25.5912C14.4493 26.9548 15.5402 28.5001 16.9946 28.5001C18.4491 28.4092 18.9945 27.5911 20.7217 27.5911C22.4489 27.5911 22.9943 28.5001 24.4487 28.5001C25.9941 28.5001 26.9941 27.1366 27.9031 25.6821C28.9939 24.1367 29.4485 22.5005 29.4485 22.5005C29.4485 22.4096 26.5395 21.3187 26.4486 17.8644Z" fill="white"/>
<path d="M23.6302 9.41032C24.4483 8.41038 24.9029 7.13773 24.812 5.77417C23.7211 5.86507 22.2666 6.5923 21.4485 7.50134C20.7213 8.31948 20.085 9.68303 20.2668 10.9557C21.5394 11.1375 22.8121 10.4103 23.6302 9.41032Z" fill="white"/>
<path d="M47.3567 28.2274H45.3568L44.266 24.7731H40.448L39.3572 28.2274H37.3573L41.1753 16.4099H43.5388L47.3567 28.2274ZM43.9024 23.3186L42.9024 20.2279C42.8115 19.9552 42.6297 19.137 42.2661 18.0462C42.1752 18.5916 41.9934 19.3188 41.7207 20.2279L40.7207 23.3186H43.9024Z" fill="white"/>
<path d="M57.1743 23.8643C57.1743 25.3187 56.8107 26.5005 55.9925 27.3186C55.2653 28.0458 54.4472 28.4095 53.3563 28.4095C52.2655 28.4095 51.4473 28.0458 50.9019 27.2277V31.682H48.9929V22.5916C48.9929 21.6826 48.9929 20.7735 48.902 19.7736H50.5383L50.6292 21.1372C51.2655 20.1372 52.1746 19.5918 53.5381 19.5918C54.5381 19.5918 55.3562 19.9554 56.0834 20.7735C56.8107 21.5917 57.1743 22.5916 57.1743 23.8643ZM55.1744 23.9552C55.1744 23.137 54.9926 22.4098 54.629 21.8644C54.1745 21.319 53.629 21.0463 52.9927 21.0463C52.5382 21.0463 52.0837 21.2281 51.7201 21.5008C51.3564 21.7735 51.0837 22.228 50.9928 22.6825C50.9019 22.9552 50.9019 23.137 50.9019 23.2279V24.6824C50.9019 25.3187 51.0837 25.8642 51.4473 26.2278C51.811 26.6823 52.3564 26.8641 52.9018 26.8641C53.629 26.8641 54.1745 26.5914 54.5381 26.046C54.9926 25.5914 55.1744 24.8642 55.1744 23.9552Z" fill="white"/>
<path d="M66.9005 23.8643C66.9005 25.3187 66.5369 26.5005 65.7188 27.3186C65.0824 28.0458 64.1734 28.5004 63.1735 28.5004C62.0826 28.5004 61.2645 28.1368 60.7191 27.3186V31.7729H58.8101V22.5916C58.8101 21.6826 58.8101 20.7735 58.7192 19.7736H60.3554L60.4464 21.1372C61.0827 20.1372 61.9917 19.5918 63.3553 19.5918C64.3552 19.5918 65.1733 19.9554 65.9006 20.7735C66.6278 21.5917 66.9005 22.5916 66.9005 23.8643ZM64.9915 23.9552C64.9915 23.137 64.8097 22.4098 64.4461 21.8644C64.0825 21.319 63.4462 21.0463 62.8098 21.0463C62.3553 21.0463 61.9008 21.2281 61.5372 21.5008C61.1736 21.7735 60.9009 22.228 60.81 22.6825C60.7191 22.9552 60.7191 23.137 60.7191 23.2279V24.6824C60.7191 25.3187 60.9009 25.8642 61.2645 26.2278C61.6281 26.6823 62.1735 26.8641 62.7189 26.8641C63.4462 26.8641 63.9916 26.5914 64.3552 26.046C64.8097 25.5914 64.9915 24.8642 64.9915 23.9552Z" fill="white"/>
<path d="M77.8999 24.9549C77.8999 25.9548 77.5362 26.7729 76.809 27.4093C76.0818 28.1365 74.9909 28.4092 73.6274 28.4092C72.3547 28.4092 71.3548 28.1365 70.5367 27.682L70.9912 26.1366C71.8093 26.5911 72.7183 26.8638 73.7183 26.8638C74.4455 26.8638 74.9909 26.682 75.3546 26.4093C75.7182 26.0457 75.9909 25.6821 75.9909 25.1367C75.9909 24.6822 75.8091 24.2276 75.5364 23.9549C75.1727 23.5913 74.6273 23.3186 73.9001 23.0459C71.8093 22.3187 70.8094 21.1369 70.8094 19.6824C70.8094 18.6825 71.173 17.9553 71.9002 17.319C72.6274 16.6826 73.6274 16.4099 74.8091 16.4099C75.9 16.4099 76.809 16.5917 77.4453 16.9553L76.9908 18.5007C76.3545 18.1371 75.5364 17.9553 74.7182 17.9553C74.0819 17.9553 73.5365 18.1371 73.1729 18.4098C72.9002 18.6825 72.7183 19.0461 72.7183 19.5006C72.7183 19.9552 72.9002 20.3188 73.2638 20.6824C73.5365 20.9551 74.1728 21.2278 74.9909 21.5914C75.9909 22.0459 76.7181 22.5005 77.2635 23.0459C77.6271 23.4095 77.8999 24.1367 77.8999 24.9549Z" fill="white"/>
<path d="M84.1721 21.137H82.0813V25.3186C82.0813 26.4095 82.4449 26.864 83.1722 26.864C83.5358 26.864 83.8085 26.864 83.9903 26.7731L84.0812 28.2275C83.7176 28.4093 83.1722 28.4093 82.6268 28.4093C81.8995 28.4093 81.2632 28.1366 80.8996 27.6821C80.4451 27.2276 80.2632 26.5004 80.2632 25.4095V21.137H78.9906V19.6826H80.2632V18.1372L82.0813 17.5918V19.6826H84.1721V21.137Z" fill="white"/>
<path d="M93.5353 23.9551C93.5353 25.2278 93.1717 26.3186 92.4445 27.1367C91.6263 28.0458 90.6264 28.4094 89.3537 28.4094C88.0811 28.4094 87.0811 27.9549 86.3539 27.1367C85.6267 26.3186 85.2631 25.2278 85.2631 23.9551C85.2631 22.5915 85.6267 21.5916 86.4448 20.6826C87.172 19.8644 88.2629 19.4099 89.5355 19.4099C90.8082 19.4099 91.8081 19.8644 92.5354 20.6826C93.1717 21.5916 93.5353 22.6824 93.5353 23.9551ZM91.6263 23.9551C91.6263 23.137 91.4445 22.5006 91.0809 21.9552C90.7173 21.3189 90.081 20.9553 89.3537 20.9553C88.6265 20.9553 87.9902 21.3189 87.6266 21.9552C87.263 22.5006 87.0811 23.2279 87.0811 23.9551C87.0811 24.7732 87.263 25.4096 87.6266 25.955C88.0811 26.5913 88.6265 26.9549 89.3537 26.9549C90.081 26.9549 90.6264 26.5913 91.0809 25.955C91.4445 25.4096 91.6263 24.7732 91.6263 23.9551Z" fill="white"/>
<path d="M99.717 21.4099C99.5352 21.4099 99.3534 21.319 99.0807 21.319C98.4443 21.319 97.8989 21.5917 97.5353 22.0462C97.2626 22.5007 97.0808 23.0461 97.0808 23.7734V28.2277H95.1718V22.4098C95.1718 21.4099 95.1718 20.5008 95.0809 19.7736H96.7172L96.8081 21.4099H96.899C97.0808 20.8644 97.4444 20.4099 97.808 20.0463C98.2625 19.7736 98.7171 19.5918 99.1716 19.5918C99.3534 19.5918 99.5352 19.5918 99.6261 19.5918L99.717 21.4099Z" fill="white"/>
<path d="M108.171 23.5916C108.171 23.9552 108.171 24.2279 108.08 24.4097H102.444C102.444 25.2278 102.717 25.8642 103.262 26.3187C103.717 26.6823 104.353 26.955 105.08 26.955C105.898 26.955 106.717 26.8641 107.353 26.5914L107.626 27.864C106.807 28.2277 105.898 28.4095 104.808 28.4095C103.444 28.4095 102.444 28.0458 101.717 27.2277C100.99 26.4096 100.626 25.4096 100.626 24.137C100.626 22.8643 100.99 21.7735 101.717 20.9554C102.444 20.0463 103.444 19.5918 104.717 19.5918C105.989 19.5918 106.898 20.0463 107.535 20.9554C107.898 21.6826 108.171 22.5007 108.171 23.5916ZM106.353 23.137C106.353 22.5916 106.262 22.1371 105.989 21.6826C105.626 21.1372 105.171 20.8644 104.444 20.8644C103.808 20.8644 103.353 21.1372 102.899 21.5917C102.626 22.0462 102.353 22.5007 102.353 23.0461H106.353V23.137Z" fill="white"/>
<path d="M42.9928 12.2285H41.9929L41.4475 10.5013H39.6294L39.084 12.2285H38.084L39.993 6.41064H41.1747L42.9928 12.2285ZM41.3566 9.77408L40.902 8.22872C40.8111 8.04691 40.7202 7.6833 40.6293 7.13788C40.5384 7.41059 40.4475 7.7742 40.3566 8.22872L39.9021 9.77408H41.3566Z" fill="white"/>
<path d="M47.7197 8.04688L46.1744 12.2284H45.2653L43.72 8.04688H44.7199L45.4471 10.2286C45.538 10.5922 45.629 10.9558 45.7199 11.3194C45.8108 11.0467 45.9017 10.6831 45.9926 10.2286L46.7198 8.04688H47.7197Z" fill="white"/>
<path d="M51.9017 12.2284H51.0836L50.9927 11.7739C50.72 12.1375 50.2655 12.3193 49.8109 12.3193C49.4473 12.3193 49.0837 12.2284 48.811 11.9557C48.6292 11.6829 48.4474 11.4102 48.4474 11.1375C48.4474 10.5921 48.6292 10.2285 49.0837 9.95578C49.5382 9.68307 50.0837 9.59216 50.9018 9.59216V9.41035C50.9018 8.86493 50.6291 8.59222 49.9928 8.59222C49.5382 8.59222 49.1746 8.68312 48.9019 8.86493L48.7201 8.22861C49.0837 7.95589 49.6291 7.86499 50.1746 7.86499C51.2654 7.86499 51.8108 8.41041 51.8108 9.59216V11.2284C51.8108 11.6829 51.9017 11.9557 51.9017 12.2284ZM50.9018 10.7739V10.1376C49.9018 10.1376 49.3564 10.4103 49.3564 10.9557C49.3564 11.1375 49.4473 11.3193 49.5382 11.4102C49.6291 11.5011 49.8109 11.592 49.9928 11.592C50.1746 11.592 50.3564 11.5011 50.5382 11.4102C50.72 11.3193 50.8109 11.1375 50.9018 10.9557V10.7739Z" fill="white"/>
<path d="M54.5377 6.77418C54.5377 6.95599 54.4468 7.04689 54.3559 7.1378C54.265 7.2287 54.0832 7.31961 53.9014 7.31961C53.7196 7.31961 53.6287 7.2287 53.5378 7.1378C53.4469 7.04689 53.356 6.86509 53.356 6.77418C53.356 6.59237 53.4469 6.50147 53.5378 6.41057C53.6287 6.31966 53.8105 6.22876 53.9014 6.22876C54.0832 6.22876 54.1741 6.31966 54.265 6.41057C54.4468 6.50147 54.5377 6.59237 54.5377 6.77418ZM54.3559 12.2284H53.4469V8.04684H54.3559V12.2284Z" fill="white"/>
<path d="M56.9921 6.13794H56.083V12.2285H56.9921V6.13794Z" fill="white"/>
<path d="M61.8098 12.2284H60.9916L60.9007 11.7739C60.5371 12.1375 60.1735 12.3193 59.6281 12.3193C59.2645 12.3193 58.9009 12.2284 58.6281 11.9557C58.4463 11.6829 58.2645 11.4102 58.2645 11.1375C58.2645 10.5921 58.4463 10.2285 58.9009 9.95578C59.3554 9.68307 59.9008 9.59216 60.7189 9.59216V9.41035C60.7189 8.86493 60.4462 8.59222 59.8099 8.59222C59.3554 8.59222 58.9918 8.68312 58.719 8.86493L58.5372 8.22861C58.9009 7.95589 59.4463 7.86499 59.9917 7.86499C61.0825 7.86499 61.628 8.41041 61.628 9.59216V11.2284C61.7189 11.6829 61.7189 11.9557 61.8098 12.2284ZM60.8098 10.7739V10.1376C59.8099 10.1376 59.2645 10.4103 59.2645 10.9557C59.2645 11.1375 59.3554 11.3193 59.4463 11.4102C59.5372 11.5011 59.719 11.592 59.9008 11.592C60.0826 11.592 60.2644 11.5011 60.4462 11.4102C60.628 11.3193 60.7189 11.1375 60.8098 10.9557V10.7739Z" fill="white"/>
<path d="M67.3554 10.0468C67.3554 10.774 67.1736 11.3195 66.81 11.774C66.4464 12.1376 66.0828 12.3194 65.5373 12.3194C64.901 12.3194 64.5374 12.0467 64.2647 11.5922L64.1738 12.2285H63.2647C63.2647 11.8649 63.2647 11.5013 63.2647 11.1376V6.13794H64.1738V8.68325C64.4465 8.22873 64.901 7.95601 65.5373 7.95601C66.0828 7.95601 66.4464 8.13782 66.81 8.50144C67.1736 8.95596 67.3554 9.41048 67.3554 10.0468ZM66.3555 10.1377C66.3555 9.77409 66.2646 9.41048 66.0828 9.13776C65.9009 8.86505 65.6282 8.68325 65.2646 8.68325C64.9919 8.68325 64.8101 8.77415 64.6283 8.86505C64.4465 9.04686 64.3556 9.22867 64.2647 9.50138C64.2647 9.59228 64.2647 9.68319 64.2647 9.77409V10.5013C64.2647 10.774 64.3556 11.0467 64.5374 11.2286C64.7192 11.4104 64.9919 11.5013 65.2646 11.5013C65.6282 11.5013 65.9009 11.4104 66.0828 11.1376C66.2646 10.9558 66.3555 10.5922 66.3555 10.1377Z" fill="white"/>
<path d="M69.6279 6.13794H68.7188V12.2285H69.6279V6.13794Z" fill="white"/>
<path d="M74.7183 9.95586C74.7183 10.1377 74.7183 10.2286 74.7183 10.4104H71.9003C71.9003 10.8649 72.0821 11.1376 72.2639 11.3194C72.5366 11.5012 72.8093 11.5921 73.173 11.5921C73.6275 11.5921 73.9911 11.5012 74.2638 11.4103L74.4456 12.0466C74.082 12.2284 73.6275 12.3194 73.0821 12.3194C72.4457 12.3194 71.9003 12.1375 71.5367 11.7739C71.1731 11.4103 70.9913 10.8649 70.9913 10.2286C70.9913 9.59224 71.1731 9.04682 71.5367 8.6832C71.9003 8.22868 72.3548 8.04688 72.9912 8.04688C73.6275 8.04688 74.082 8.22868 74.3547 8.6832C74.6274 8.95591 74.7183 9.41043 74.7183 9.95586ZM73.8093 9.68314C73.8093 9.41043 73.7184 9.13772 73.6275 8.95591C73.4457 8.6832 73.2639 8.5923 72.9003 8.5923C72.6275 8.5923 72.3548 8.6832 72.173 8.95591C71.9912 9.13772 71.9003 9.41043 71.9003 9.68314H73.8093Z" fill="white"/>
<path d="M82.4455 10.1376C82.4455 10.7739 82.2637 11.3193 81.9001 11.6829C81.5365 12.1375 80.991 12.3193 80.3547 12.3193C79.7184 12.3193 79.2639 12.1375 78.9002 11.6829C78.5366 11.3193 78.3548 10.7739 78.3548 10.1376C78.3548 9.50126 78.5366 8.95584 78.9002 8.50132C79.2639 8.0468 79.8093 7.86499 80.4456 7.86499C81.0819 7.86499 81.5365 8.0468 81.9001 8.50132C82.2637 8.95584 82.4455 9.50126 82.4455 10.1376ZM81.4456 10.1376C81.4456 9.77397 81.3547 9.41035 81.1728 9.13764C80.991 8.77403 80.7183 8.68312 80.3547 8.68312C79.9911 8.68312 79.7184 8.86493 79.5366 9.13764C79.3548 9.41035 79.2639 9.77397 79.2639 10.1376C79.2639 10.5012 79.3548 10.8648 79.5366 11.1375C79.7184 11.5011 79.9911 11.592 80.3547 11.592C80.7183 11.592 80.991 11.4102 81.1728 11.0466C81.3547 10.8648 81.4456 10.5012 81.4456 10.1376Z" fill="white"/>
<path d="M87.4451 12.2285H86.5361V9.86503C86.5361 9.1378 86.2634 8.77419 85.7179 8.77419C85.4452 8.77419 85.2634 8.86509 85.0816 9.0469C84.8998 9.22871 84.8089 9.50142 84.8089 9.77413V12.2285H83.8999V9.22871C83.8999 8.86509 83.8999 8.50148 83.8999 8.04696H84.718V8.68329C84.8089 8.50148 84.9907 8.31967 85.1725 8.22877C85.4452 8.04696 85.718 7.95605 85.9907 7.95605C86.3543 7.95605 86.7179 8.04696 86.9906 8.31967C87.3542 8.59238 87.4451 9.0469 87.4451 9.68323V12.2285Z" fill="white"/>
<path d="M93.5353 8.77413H92.5353V10.774C92.5353 11.3194 92.7171 11.5921 93.0808 11.5921C93.2626 11.5921 93.3535 11.5921 93.5353 11.5921V12.3194C93.3535 12.4103 93.0808 12.4103 92.808 12.4103C92.4444 12.4103 92.1717 12.3194 91.9899 12.0467C91.8081 11.8649 91.7172 11.4103 91.7172 10.9558V8.77413H91.0809V8.0469H91.7172V7.22877L92.6262 6.95605V7.956H93.6262V8.77413H93.5353Z" fill="white"/>
<path d="M98.4443 12.2285H97.5353V9.86499C97.5353 9.13776 97.2625 8.77415 96.7171 8.77415C96.2626 8.77415 95.9899 8.95596 95.8081 9.41048C95.8081 9.50138 95.8081 9.59228 95.8081 9.77409V12.3194H94.899V6.13794H95.8081V8.68325C96.0808 8.22873 96.5353 8.04692 97.0807 8.04692C97.4443 8.04692 97.808 8.13782 98.0807 8.41053C98.3534 8.68325 98.5352 9.22867 98.5352 9.77409V12.2285H98.4443Z" fill="white"/>
<path d="M103.262 9.95586C103.262 10.1377 103.262 10.2286 103.262 10.4104H100.444C100.444 10.8649 100.626 11.1376 100.808 11.3194C101.08 11.5012 101.353 11.5921 101.717 11.5921C102.171 11.5921 102.535 11.5012 102.807 11.4103L102.989 12.0466C102.626 12.2284 102.08 12.3194 101.626 12.3194C100.989 12.3194 100.444 12.1375 100.08 11.7739C99.7167 11.4103 99.5349 10.8649 99.5349 10.2286C99.5349 9.59224 99.7167 9.04682 100.08 8.6832C100.444 8.22868 100.898 8.04688 101.535 8.04688C102.171 8.04688 102.626 8.22868 102.898 8.6832C103.08 8.95591 103.262 9.41043 103.262 9.95586ZM102.353 9.68314C102.353 9.41043 102.262 9.13772 102.171 8.95591C101.989 8.6832 101.807 8.5923 101.444 8.5923C101.171 8.5923 100.898 8.6832 100.717 8.95591C100.535 9.13772 100.444 9.41043 100.444 9.68314H102.353Z" fill="white"/>
</g>
<defs>
<clipPath id="clip0_8_3594">
<rect width="118.175" height="35.4525" fill="white" transform="translate(0.540955 0.320068)"/>
</clipPath>
</defs>
</svg>
