<svg width="119" height="37" viewBox="0 0 119 37" fill="none" xmlns="http://www.w3.org/2000/svg">
<g clip-path="url(#clip0_8_3623)">
<path d="M118.716 32.2275C118.716 34.2274 117.171 35.7728 115.352 35.7728H3.90439C2.08632 35.7728 0.540955 34.2274 0.540955 32.2275V3.86556C0.540955 1.95658 2.08632 0.320312 3.90439 0.320312H115.262C117.171 0.320312 118.625 1.95658 118.625 3.86556L118.716 32.2275Z" fill="black" fill-opacity="0.5"/>
<path d="M44.7404 24.3828H40.7413L39.7614 27.0566H38.0022L41.9173 17.0613H43.5831L47.5915 27.0566H45.725L44.7404 24.3828ZM41.2453 23.0202H44.2318L43.1632 20.1831C43.0138 19.7864 42.8692 19.3478 42.7245 18.8718C42.5985 19.2965 42.4585 19.7258 42.3046 20.1691L41.2453 23.0202Z" fill="white"/>
<path d="M48.3852 21.4523C48.3852 20.9017 48.3665 20.2951 48.3292 19.6324H49.9297C49.9904 19.9407 50.0325 20.2524 50.0557 20.5657C50.3356 20.2322 50.6846 19.9635 51.0786 19.7782C51.4726 19.5928 51.9022 19.4954 52.3376 19.4924C52.8486 19.4853 53.3503 19.63 53.7789 19.9083C54.2076 20.1866 54.544 20.5859 54.7454 21.0557C55.0247 21.7063 55.157 22.4106 55.1327 23.1182C55.1456 23.8857 54.9861 24.6463 54.6661 25.344C54.3995 25.9243 53.9656 26.4118 53.4202 26.7439C52.8531 27.0689 52.207 27.2305 51.5536 27.2106C51.0433 27.211 50.5367 27.1242 50.0557 26.9539V30.0337L48.3525 30.1783L48.3852 21.4523ZM52.8649 25.26C53.251 24.6495 53.434 23.9324 53.3875 23.2115C53.4388 22.5772 53.2868 21.9431 52.9535 21.401C52.8222 21.2212 52.649 21.0763 52.449 20.9787C52.2489 20.8811 52.0281 20.8339 51.8056 20.841C51.4793 20.8344 51.1571 20.9149 50.8723 21.0743C50.5751 21.2414 50.3059 21.4539 50.0744 21.7043V25.6893C50.2628 25.7796 50.4619 25.8455 50.667 25.8853C50.8879 25.9332 51.113 25.9582 51.339 25.96C51.6314 25.9789 51.9239 25.9248 52.1903 25.8026C52.4566 25.6804 52.6884 25.494 52.8649 25.26Z" fill="white"/>
<path d="M56.2153 21.4524C56.2153 20.9018 56.1966 20.2952 56.1593 19.6326H57.7598C57.8205 19.9408 57.8625 20.2525 57.8858 20.5658C58.1643 20.2308 58.512 19.9601 58.9052 19.7724C59.2983 19.5847 59.7274 19.4845 60.163 19.4786C60.6558 19.4712 61.1408 19.6022 61.5629 19.8565C62.016 20.1399 62.3737 20.5528 62.5895 21.0418C62.8688 21.6924 63.001 22.3967 62.9768 23.1043C62.997 23.87 62.8455 24.6306 62.5335 25.3301C62.2669 25.9105 61.833 26.3979 61.2876 26.73C60.7205 27.0551 60.0744 27.2166 59.421 27.1967C58.9108 27.1968 58.4043 27.11 57.9231 26.94V30.0198L56.2199 30.1645L56.2153 21.4524ZM60.6949 25.2602C61.0783 24.6489 61.2565 23.9312 61.2036 23.2116C61.2549 22.5773 61.1029 21.9432 60.7696 21.4011C60.6383 21.2214 60.4651 21.0764 60.2651 20.9788C60.065 20.8812 59.8442 20.834 59.6217 20.8411C59.2953 20.8336 58.9729 20.9142 58.6884 21.0744C58.4073 21.2449 58.154 21.4574 57.9371 21.7044V25.6895C58.1255 25.7797 58.3247 25.8456 58.5298 25.8854C58.7506 25.9333 58.9758 25.9583 59.2017 25.9601C59.4888 25.9739 59.7749 25.9174 60.0352 25.7954C60.2954 25.6734 60.5219 25.4897 60.6949 25.2602Z" fill="white"/>
<path d="M66.1684 26.6041C65.4381 26.2041 64.846 25.5924 64.4699 24.8495C64.0593 24.0142 63.8561 23.0923 63.8772 22.1617C63.8469 21.1641 64.0837 20.1766 64.5632 19.3013C64.9954 18.5391 65.6453 17.9233 66.4297 17.5327C67.2518 17.1323 68.1565 16.9308 69.0709 16.9448C69.6242 16.9409 70.1758 17.0051 70.7134 17.1361C71.2175 17.2558 71.7071 17.4294 72.174 17.6541L71.74 18.9653C70.932 18.5556 70.0419 18.3339 69.1362 18.3167C68.4977 18.3101 67.8686 18.471 67.3116 18.7833C66.7825 19.0873 66.3579 19.5444 66.0937 20.0945C65.7881 20.7447 65.6394 21.4576 65.6598 22.1757C65.6493 22.824 65.7617 23.4685 65.9911 24.0749C66.2011 24.6104 66.5709 25.0683 67.0503 25.3862C67.5952 25.7196 68.2274 25.8821 68.8655 25.8528C69.1986 25.8527 69.5311 25.8246 69.8595 25.7688C70.1775 25.7174 70.4899 25.6361 70.7927 25.5262V23.501H68.4596V22.1804H72.426V26.3801C71.8506 26.6484 71.2484 26.8549 70.6294 26.9961C70.017 27.1359 69.391 27.2079 68.7629 27.2107C67.8606 27.2317 66.9678 27.0229 66.1684 26.6041Z" fill="white"/>
<path d="M78.5856 27.0752C78.5213 26.7505 78.4823 26.4214 78.4689 26.0906C78.1855 26.4215 77.8378 26.6914 77.447 26.8839C77.005 27.1087 76.5149 27.2224 76.0191 27.2152C75.6162 27.2204 75.2174 27.1342 74.8525 26.9632C74.5023 26.8001 74.2096 26.535 74.0126 26.2026C73.7972 25.827 73.6905 25.3988 73.7046 24.9661C73.6916 24.6369 73.7552 24.3091 73.8905 24.0087C74.0257 23.7083 74.2288 23.4434 74.4839 23.2348C75.0003 22.8055 75.8667 22.5909 77.083 22.5909C77.5359 22.5907 77.9882 22.6234 78.4363 22.6889V22.5442C78.464 22.2946 78.4412 22.042 78.369 21.8015C78.2968 21.5609 78.1769 21.3374 78.0163 21.1443C77.6822 20.8559 77.2482 20.7101 76.8077 20.7384C76.4135 20.7433 76.0215 20.7982 75.6411 20.9017C75.2654 20.9906 74.8995 21.1172 74.5492 21.2797L74.2692 20.0477C74.6557 19.8819 75.0573 19.7537 75.4685 19.6651C75.9846 19.5493 76.5121 19.4914 77.041 19.4924C77.6029 19.4774 78.1618 19.5774 78.6836 19.7864C79.1413 19.99 79.5141 20.3463 79.7382 20.7944C80.0167 21.3955 80.1464 22.055 80.1161 22.7169V25.6753C80.1161 25.9864 80.1348 26.4531 80.1721 27.0752H78.5856ZM77.5637 25.6753C77.8944 25.525 78.1913 25.3091 78.4363 25.0407V23.6408C78.0583 23.5958 77.6783 23.5708 77.2977 23.5662C76.7866 23.5159 76.2732 23.6356 75.8371 23.9068C75.7031 24.0211 75.5972 24.1648 75.5276 24.3266C75.458 24.4885 75.4266 24.6641 75.4358 24.8401C75.4238 24.9889 75.4433 25.1386 75.4932 25.2793C75.543 25.42 75.6221 25.5486 75.7251 25.6567C75.9476 25.8435 76.233 25.9386 76.5231 25.9227C76.8829 25.9277 77.2391 25.8495 77.5637 25.694V25.6753Z" fill="white"/>
<path d="M81.6233 25.2881V16.492L83.3218 16.3567V24.9847C83.2996 25.2201 83.3553 25.4562 83.4805 25.6567C83.5457 25.726 83.6257 25.7797 83.7146 25.8136C83.8035 25.8475 83.899 25.8609 83.9938 25.8527C84.1518 25.8474 84.3086 25.8223 84.4604 25.778L84.6564 27.0006C84.4669 27.0741 84.2696 27.1258 84.0684 27.1546C83.851 27.1921 83.631 27.2123 83.4105 27.2153C82.2221 27.2153 81.6264 26.5729 81.6233 25.2881Z" fill="white"/>
<path d="M85.8646 25.2881V16.492L87.5631 16.3567V24.9847C87.5397 25.2208 87.5973 25.4577 87.7264 25.6567C87.7912 25.7266 87.8712 25.7806 87.9602 25.8146C88.0492 25.8486 88.1449 25.8616 88.2397 25.8527C88.3978 25.8473 88.5545 25.8222 88.7064 25.778L88.907 27.0006C88.7157 27.0734 88.517 27.1251 88.3144 27.1546C88.097 27.1921 87.877 27.2123 87.6564 27.2153C86.465 27.2153 85.8677 26.5729 85.8646 25.2881Z" fill="white"/>
<path d="M95.9535 23.5707H91.0678C91.1456 25.1262 91.8875 25.9039 93.2936 25.9039C93.655 25.9027 94.0151 25.8604 94.3669 25.7779C94.7275 25.6947 95.0803 25.5808 95.4215 25.4373L95.7901 26.6039C94.9151 27.0164 93.9576 27.2238 92.9903 27.2105C92.2942 27.2276 91.6053 27.067 90.9885 26.7439C90.4545 26.4531 90.0265 26.0006 89.7659 25.4513C89.4753 24.8151 89.3348 24.1206 89.3553 23.4214C89.3362 22.6899 89.4847 21.9637 89.7892 21.2982C90.0499 20.7367 90.4703 20.2644 90.9978 19.9403C91.5405 19.6221 92.1607 19.4606 92.7897 19.4737C93.4146 19.4522 94.0309 19.625 94.5536 19.9683C95.0237 20.2947 95.3873 20.7524 95.5988 21.2842C95.8338 21.8602 95.9512 22.4774 95.9441 23.0995L95.9535 23.5707ZM94.2876 22.4882C94.2883 22.0032 94.1237 21.5324 93.8209 21.1536C93.6867 21.0053 93.5212 20.8886 93.3364 20.812C93.1516 20.7353 92.9522 20.7006 92.7524 20.7103C92.5499 20.7072 92.349 20.7472 92.1632 20.8276C91.9773 20.9081 91.8107 21.0272 91.6744 21.1769C91.3524 21.5507 91.155 22.0156 91.1098 22.5068L94.2876 22.4882Z" fill="white"/>
<path d="M97.3254 21.5037C97.3254 21.0931 97.3254 20.4678 97.2694 19.6372H98.8606C98.8886 19.8425 98.9166 20.1038 98.94 20.3791C98.9633 20.6545 98.9866 20.9018 98.996 21.0791C99.1675 20.7894 99.3609 20.5133 99.5746 20.2531C99.765 20.0358 99.9925 19.8541 100.247 19.7165C100.514 19.5698 100.814 19.4958 101.119 19.5019C101.348 19.4977 101.575 19.526 101.796 19.5859L101.581 21.0651C101.403 21.0113 101.217 20.9846 101.03 20.9858C100.657 20.9774 100.29 21.085 99.9806 21.2937C99.6003 21.5712 99.2691 21.9103 99.0006 22.297V27.0753H97.3067L97.3254 21.5037Z" fill="white"/>
<path d="M102.818 30.1222C102.609 30.0867 102.403 30.0368 102.202 29.9729L102.514 28.7317C102.626 28.7643 102.771 28.7923 102.948 28.825C103.112 28.8536 103.277 28.8692 103.443 28.8717C104.199 28.8717 104.764 28.405 105.142 27.4158L105.254 27.1358L102.505 19.6323H104.334L105.734 23.832C105.912 24.3717 106.057 24.9218 106.168 25.4792C106.294 24.9426 106.448 24.406 106.635 23.8647L108.035 19.637H109.733L106.985 27.1825C106.778 27.7885 106.498 28.3668 106.149 28.9043C105.884 29.3131 105.519 29.6485 105.09 29.8796C104.631 30.1018 104.125 30.2106 103.616 30.1969C103.348 30.1945 103.081 30.1695 102.818 30.1222Z" fill="white"/>
<path d="M37.9931 7.35522H41.0635L40.9796 8.09717H38.8937V9.5344H40.8582V10.2297H38.8937V11.8256H41.0915L41.0169 12.5722H37.9931V7.35522Z" fill="white"/>
<path d="M43.1818 9.91701L41.5626 7.35986H42.5845L43.6858 9.2264L44.8384 7.35986H45.837L44.2271 9.88435L45.9676 12.5768H44.9317L43.6904 10.5236L42.4212 12.5768H41.4273L43.1818 9.91701Z" fill="white"/>
<path d="M46.6303 7.35525H48.0302C48.5667 7.31949 49.0999 7.46223 49.5468 7.76122C49.7211 7.89972 49.8599 8.07781 49.9516 8.2807C50.0433 8.48359 50.0853 8.70543 50.0741 8.9278C50.0808 9.24525 50.0001 9.55842 49.8408 9.83307C49.6833 10.0901 49.4548 10.2959 49.1828 10.4257C48.8799 10.5699 48.5476 10.6418 48.2122 10.6357C47.9817 10.6333 47.7519 10.6083 47.5262 10.561V12.5722H46.6303V7.35525ZM48.8888 9.68842C48.9882 9.59426 49.0656 9.4794 49.1156 9.35199C49.1656 9.22458 49.1869 9.08772 49.1781 8.95114C49.1895 8.82006 49.1687 8.68819 49.1174 8.56702C49.0662 8.44584 48.9861 8.33902 48.8842 8.25585C48.6248 8.09877 48.3234 8.02545 48.0209 8.04587H47.5542V9.9124C47.7256 9.94047 47.8986 9.95762 48.0722 9.96373C48.3698 9.97546 48.661 9.87561 48.8888 9.68375V9.68842Z" fill="white"/>
<path d="M50.9702 7.35522H51.8708V11.7836H54.0267L53.952 12.5535H50.9702V7.35522Z" fill="white"/>
<path d="M55.394 12.3155C55.0166 12.0983 54.7127 11.7733 54.5214 11.3822C54.3089 10.9469 54.2049 10.4666 54.2181 9.98232C54.2065 9.48265 54.317 8.98769 54.5401 8.54043C54.7518 8.14369 55.0766 7.81884 55.4733 7.60716C55.9143 7.37457 56.4075 7.25889 56.9059 7.27118C57.3796 7.25716 57.8484 7.36993 58.2638 7.59783C58.6426 7.81173 58.9458 8.13778 59.1317 8.5311C59.3385 8.95664 59.4409 9.42533 59.4304 9.89833C59.4438 10.4047 59.3316 10.9065 59.1038 11.3589C58.8973 11.7653 58.5717 12.099 58.1705 12.3155C57.7402 12.5452 57.2583 12.6609 56.7706 12.6515C56.29 12.6644 55.8146 12.5484 55.394 12.3155ZM57.7272 11.6762C57.9801 11.5055 58.1766 11.2635 58.2918 10.9809C58.4219 10.6562 58.4854 10.3087 58.4785 9.95899C58.4831 9.61912 58.4278 9.28108 58.3151 8.9604C58.2126 8.6787 58.0271 8.43467 57.7832 8.26045C57.508 8.07578 57.1809 7.98419 56.8499 7.99913C56.5195 7.98921 56.1939 8.08038 55.9166 8.26045C55.6634 8.44402 55.4663 8.69446 55.3473 8.98373C55.2177 9.29564 55.1527 9.63058 55.156 9.96833C55.1503 10.3145 55.2121 10.6584 55.338 10.9809C55.4478 11.2651 55.6394 11.5103 55.8886 11.6855C56.1645 11.8687 56.4911 11.9602 56.8219 11.9469C57.1457 11.951 57.463 11.8566 57.7318 11.6762H57.7272Z" fill="white"/>
<path d="M60.4335 7.35541H62.0667C62.5436 7.32269 63.0179 7.44906 63.4153 7.71472C63.5696 7.83383 63.6927 7.98863 63.774 8.16583C63.8552 8.34302 63.8923 8.53731 63.8819 8.73198C63.8846 8.96901 63.834 9.20362 63.7339 9.41846C63.6337 9.63331 63.4865 9.8229 63.3033 9.97322C63.153 10.1001 62.9827 10.201 62.7993 10.2719L64.4045 12.5724H63.3593L62.0014 10.5052H61.3387V12.5724H60.4381L60.4335 7.35541ZM61.8334 9.8239C62.035 9.82797 62.2347 9.78483 62.4167 9.69791C62.58 9.61743 62.7163 9.49091 62.8086 9.33394C62.9043 9.17157 62.9528 8.98573 62.9486 8.79731C62.9574 8.68872 62.9394 8.57963 62.8963 8.47958C62.8532 8.37953 62.7863 8.29156 62.7013 8.22335C62.4835 8.08847 62.229 8.02485 61.9734 8.04136H61.3247V9.8239H61.8334Z" fill="white"/>
<path d="M65.1136 7.35522H68.2027L68.1187 8.09717H66.0328V9.5344H67.9973V10.2297H66.0328V11.8256H68.2027L68.1233 12.5722H65.1042L65.1136 7.35522Z" fill="white"/>
<path d="M71.525 7.35522H72.4256V12.5722H71.525V7.35522Z" fill="white"/>
<path d="M74.8102 8.11117H73.191L73.2703 7.35522H77.33L77.246 8.11117H75.7108V12.5722H74.8102V8.11117Z" fill="white"/>
<path d="M81.2403 12.3155C80.8605 12.1 80.5547 11.7747 80.3631 11.3822C80.1506 10.9469 80.0465 10.4666 80.0597 9.98232C80.0481 9.48265 80.1586 8.98769 80.3817 8.54043C80.5925 8.14301 80.9176 7.81792 81.315 7.60716C81.7543 7.37456 82.246 7.25886 82.7429 7.27118C83.2165 7.25716 83.6853 7.36993 84.1008 7.59783C84.4796 7.81173 84.7828 8.13778 84.9687 8.5311C85.1769 8.9563 85.2809 9.42497 85.272 9.89833C85.2832 10.4045 85.1711 10.9057 84.9454 11.3589C84.7361 11.7633 84.4112 12.0962 84.0121 12.3155C83.5814 12.544 83.0998 12.6596 82.6122 12.6515C82.1332 12.6638 81.6595 12.5478 81.2403 12.3155ZM83.5735 11.6762C83.8264 11.5055 84.023 11.2635 84.1381 10.9809C84.2682 10.6562 84.3317 10.3087 84.3248 9.95899C84.3286 9.62679 84.2733 9.29655 84.1614 8.98373C84.0589 8.70203 83.8734 8.45801 83.6295 8.28378C83.3545 8.0988 83.0273 8.00719 82.6962 8.02246C82.3768 8.00624 82.0604 8.09016 81.791 8.26249C81.5216 8.43482 81.3128 8.68697 81.1937 8.98373C81.0619 9.29498 80.9967 9.63037 81.0023 9.96833C80.9975 10.314 81.0576 10.6575 81.1797 10.9809C81.2921 11.2611 81.4854 11.5015 81.735 11.6715C82.0102 11.8559 82.3372 11.9475 82.6682 11.9329C82.9889 11.9402 83.3044 11.8508 83.5735 11.6762Z" fill="white"/>
<path d="M86.2758 7.35522H87.3351L89.9109 11.3963C89.9109 11.0136 89.8782 10.659 89.8782 10.337V7.35522H90.7135V12.5722H89.7149L87.0971 8.46581C87.1204 8.93245 87.1344 9.34308 87.1344 9.70706V12.5722H86.2992L86.2758 7.35522Z" fill="white"/>
<path fill-rule="evenodd" clip-rule="evenodd" d="M25.3466 7.31323H15.7246C11.1889 7.31323 9.53239 8.97445 9.53239 13.5055V23.1274C9.53239 27.6584 11.1889 29.3197 15.7246 29.3197H25.3419C29.8776 29.3197 31.5388 27.6584 31.5388 23.1274V13.5055C31.5388 8.98378 29.8776 7.31323 25.3466 7.31323Z" fill="#CE0E2D"/>
<path d="M13.8916 18.3164H14.4749V21.1955H13.8916V20.029H12.5757V21.1955H11.9877V18.3164H12.5757V19.4783H13.8916V18.3164ZM17.158 19.9636C17.158 20.4303 16.9247 20.6822 16.5001 20.6822C16.0755 20.6822 15.8468 20.4256 15.8468 19.945V18.3164H15.2822V19.959C15.2621 20.1279 15.2799 20.2991 15.3344 20.4603C15.3889 20.6214 15.4786 20.7684 15.5971 20.8904C15.7156 21.0125 15.8598 21.1065 16.0192 21.1658C16.1787 21.225 16.3493 21.2479 16.5188 21.2329C16.6905 21.2474 16.8634 21.2234 17.0247 21.1626C17.186 21.1018 17.3317 21.0057 17.4511 20.8814C17.5705 20.757 17.6606 20.6076 17.7149 20.444C17.7691 20.2803 17.7861 20.1067 17.7647 19.9356V18.3164H17.1814L17.158 19.9636ZM23.9009 20.2949L23.2709 18.3164H22.8043L22.151 20.2949L21.5071 18.3164H20.8864L21.8897 21.1909H22.3563L23.0143 19.301L23.6676 21.1909H24.1342L25.1655 18.3164H24.5635L23.9009 20.2949ZM26.2061 19.959H27.2653V19.4317H26.2061V18.8437H27.746V18.3164H25.6368V21.1909H27.8113V20.6496H26.2061V19.959ZM28.4972 21.1909H29.0712V18.3164H28.5066L28.4972 21.1909ZM18.9173 20.5936L18.6559 21.1955H18.0586L19.3279 18.3164H19.8412L21.1011 21.1955H20.4898L20.2332 20.5936H18.9173ZM19.1319 20.0756H20.0138L19.5752 19.0444L19.1319 20.0756Z" fill="white"/>
<path d="M20.5363 14.6535C19.5656 14.6535 18.6346 14.2682 17.9478 13.5823C17.261 12.8963 16.8745 11.9658 16.8732 10.9951H17.3912C17.3912 11.8293 17.7226 12.6292 18.3124 13.219C18.9022 13.8089 19.7022 14.1402 20.5363 14.1402C21.3705 14.1402 22.1704 13.8089 22.7602 13.219C23.3501 12.6292 23.6814 11.8293 23.6814 10.9951H24.1994C24.1982 11.9658 23.8117 12.8963 23.1249 13.5823C22.438 14.2682 21.507 14.6535 20.5363 14.6535Z" fill="white"/>
</g>
<defs>
<clipPath id="clip0_8_3623">
<rect width="118.175" height="35.4641" fill="white" transform="translate(0.540955 0.584473)"/>
</clipPath>
</defs>
</svg>
