<?xml version="1.0" encoding="UTF-8"?>
<svg fill="none" viewBox="0 0 118 28" xmlns="http://www.w3.org/2000/svg">
<rect width="118" height="28" fill="#1E1E1E"/>
<g clip-path="url(#b)">
<rect transform="translate(-124 -42)" width="1440" height="2334" fill="#fff"/>
<mask id="a" fill="white">
<path d="M-131 -42H1316V70H-131V-42Z"/>
</mask>
<path d="m1316 69h-1447v2h1447v-2z" fill="#E2E5E9" mask="url(#a)"/>
<g fill="#02C9C0">
<path d="m17.613 22.447v5.0214h-16.798v-26.649h16.606v5.0214h-11.255v5.6673h10.278v4.9589h-10.278v5.9798h11.446z"/>
<path d="m43.509 8.3414v18.617h-4.8979v-2.1998c-1.3697 1.6702-3.4036 2.7091-6.1845 2.7091-5.0432 0-9.2147-4.2776-9.2147-9.818s4.1923-9.818 9.2354-9.818c2.7602 0 4.8148 1.0388 6.1846 2.7091v-2.1998h4.8771zm-4.8771 9.3087c0-3.1165-2.2414-5.2553-5.2714-5.2553-2.9886 0-5.2299 2.1184-5.2299 5.2553 0 3.1165 2.2413 5.2553 5.2299 5.2553 3.03 0 5.2714-2.1184 5.2714-5.2553z"/>
<path d="m53.966 13.392v7.7005c0 2.0062 1.4616 2.0265 4.2406 1.8846v4.3367c-6.8138 0.7497-9.0987-1.2159-9.0987-6.2213v-16.029l4.8581-1.4388v5.1877h4.2406v4.6001h-4.2406v-0.0203z"/>
<path d="m91.802 15.695v11.773h-4.8554v-11.418c0-2.2585-1.1364-3.6386-3.1612-3.6386-2.1487 0-3.5124 1.4429-3.5124 4.3077v10.728h-4.8967v-11.397c0-2.2585-1.1363-3.6386-3.1611-3.6386-2.0662 0-3.5538 1.4429-3.5538 4.3077v10.728h-4.8554v-19.092h4.8761v2.0284c1.0537-1.6102 2.8306-2.5512 5.2479-2.5512 2.3348 0 4.0703 1.0038 5.124 2.7604 1.157-1.7357 3.0579-2.7604 5.6199-2.7604 4.2975 0 7.1281 3.0949 7.1281 7.8628z"/>
<path d="m110.88 21.779c1.53-1.0556 2.306-2.5579 2.347-3.8977l4.469-0.3858c0.02 3.0655-1.429 5.8467-4.367 7.8971-5.123 3.573-10.837 2.3346-14.021-2.1925-3.1837-4.5271-2.3878-10.293 2.4079-13.642 4.531-3.1466 10.225-1.8271 13.368 2.6391 0.408 0.5684 0.714 1.1368 0.979 1.7256l-11.51 8.0189c1.959 1.6037 4.245 1.2789 6.327-0.1625zm-0.735-8.2827c-2.021-1.8474-4.306-1.5835-5.939-0.4264-2.102 1.4617-2.755 3.5933-1.837 5.8467l7.776-5.4203z"/>
</g>
</g>
<defs>
<clipPath id="b">
<rect transform="translate(-124 -42)" width="1440" height="2334" fill="#fff"/>
</clipPath>
</defs>
</svg>
