<svg width="25" height="24" viewBox="0 0 25 24" fill="none" xmlns="http://www.w3.org/2000/svg">
<g clip-path="url(#clip0_2_18074)">
<path d="M22.7888 4.07651C22.5075 3.73895 22.1554 3.46746 21.7573 3.28133C21.3593 3.09519 20.9252 2.99898 20.4858 2.99951H4.31781L4.27581 2.64851C4.18985 1.91893 3.83919 1.24624 3.2903 0.75799C2.7414 0.269735 2.03243 -0.000146488 1.29781 -0.000488281L1.07581 -0.000488281C0.810589 -0.000488281 0.556235 0.104869 0.368699 0.292405C0.181163 0.479941 0.0758057 0.734295 0.0758057 0.999512C0.0758057 1.26473 0.181163 1.51908 0.368699 1.70662C0.556235 1.89415 0.810589 1.99951 1.07581 1.99951H1.29781C1.54274 1.99954 1.77914 2.08947 1.96218 2.25223C2.14521 2.41499 2.26215 2.63926 2.29081 2.88251L3.66681 14.5825C3.80966 15.7993 4.39428 16.9213 5.30971 17.7355C6.22514 18.5497 7.40766 18.9995 8.63281 18.9995H19.0758C19.341 18.9995 19.5954 18.8942 19.7829 18.7066C19.9704 18.5191 20.0758 18.2647 20.0758 17.9995C20.0758 17.7343 19.9704 17.4799 19.7829 17.2924C19.5954 17.1049 19.341 16.9995 19.0758 16.9995H8.63281C8.01386 16.9978 7.41061 16.8046 6.90574 16.4466C6.40088 16.0885 6.01912 15.5831 5.81281 14.9995H17.7328C18.9051 14.9996 20.0401 14.5877 20.9396 13.8359C21.8391 13.0842 22.4458 12.0402 22.6538 10.8865L23.4388 6.53251C23.5172 6.10052 23.4996 5.65658 23.3872 5.23215C23.2749 4.80772 23.0706 4.41319 22.7888 4.07651ZM21.4758 6.17751L20.6898 10.5315C20.5649 11.2245 20.2003 11.8515 19.6597 12.3027C19.1191 12.7539 18.437 13.0006 17.7328 12.9995H5.49481L4.55381 4.99951H20.4858C20.6327 4.99863 20.778 5.03013 20.9113 5.09177C21.0447 5.1534 21.1628 5.24366 21.2573 5.35612C21.3518 5.46858 21.4204 5.60048 21.4582 5.74245C21.4959 5.88441 21.502 6.03296 21.4758 6.17751Z" fill="#0E1114"/>
<path d="M7.07581 23.9995C8.18038 23.9995 9.07581 23.1041 9.07581 21.9995C9.07581 20.8949 8.18038 19.9995 7.07581 19.9995C5.97124 19.9995 5.07581 20.8949 5.07581 21.9995C5.07581 23.1041 5.97124 23.9995 7.07581 23.9995Z" fill="#0E1114"/>
<path d="M17.0758 23.9995C18.1804 23.9995 19.0758 23.1041 19.0758 21.9995C19.0758 20.8949 18.1804 19.9995 17.0758 19.9995C15.9712 19.9995 15.0758 20.8949 15.0758 21.9995C15.0758 23.1041 15.9712 23.9995 17.0758 23.9995Z" fill="#0E1114"/>
</g>
<defs>
<clipPath id="clip0_2_18074">
<rect width="24" height="24" fill="white" transform="translate(0.0758057 -0.000488281)"/>
</clipPath>
</defs>
</svg>
