<svg width="17" height="17" viewBox="0 0 17 17" fill="none" xmlns="http://www.w3.org/2000/svg">
<path d="M5.57812 2.90234C5.57812 2.35006 6.02585 1.90234 6.57812 1.90234H9.57812C10.1304 1.90234 10.5781 2.35006 10.5781 2.90234V3.90234H13.5781C14.1304 3.90234 14.5781 4.35006 14.5781 4.90234C14.5781 5.45462 14.1304 5.90234 13.5781 5.90234H2.57812C2.02584 5.90234 1.57812 5.45462 1.57812 4.90234C1.57812 4.35006 2.02584 3.90234 2.57812 3.90234H5.57812V2.90234Z" fill="#98A1AE"/>
<path d="M13.3128 7.40234H2.84375L3.59052 14.1232C3.70306 15.136 4.55918 15.9023 5.57828 15.9023H10.5782C11.5974 15.9023 12.4535 15.136 12.566 14.1232L13.3128 7.40234Z" fill="#98A1AE"/>
</svg>
